<svg class="main-svg" xmlns="http://www.w3.org/2000/svg" xmlns:xlink="http://www.w3.org/1999/xlink" width="700" height="450" style="" viewBox="0 0 700 450"><rect x="0" y="0" width="700" height="450" style="fill: rgb(255, 255, 255); fill-opacity: 1;"/><defs id="defs-acfaef"><g class="clips"><clipPath class="plotclip" id="clipacfaefxyplot"><rect width="580" height="330"/></clipPath><clipPath class="axesclip" id="clipacfaefx"><rect x="60" y="0" width="580" height="450"/></clipPath><clipPath class="axesclip" id="clipacfaefy"><rect x="0" y="60" width="700" height="330"/></clipPath><clipPath class="axesclip" id="clipacfaefxy"><rect x="60" y="60" width="580" height="330"/></clipPath></g><g class="gradients"/></defs><g class="bglayer"><rect class="bg" x="60" y="60" width="580" height="330" style="fill: rgb(255, 255, 255); fill-opacity: 1; stroke-width: 0;"/></g><g class="layer-below"><g class="imagelayer"/><g class="shapelayer"/></g><g class="cartesianlayer"><g class="subplot xy"><g class="layer-subplot"><g class="shapelayer"/><g class="imagelayer"/></g><g class="gridlayer"><g class="x"><path class="xgrid crisp" d="M0,60v330" transform="translate(176.23000000000002,0)" style="stroke: rgb(238, 238, 238); stroke-opacity: 1; stroke-width: 1px;"/><path class="xgrid crisp" d="M0,60v330" transform="translate(292.46000000000004,0)" style="stroke: rgb(238, 238, 238); stroke-opacity: 1; stroke-width: 1px;"/><path class="xgrid crisp" d="M0,60v330" transform="translate(408.7,0)" style="stroke: rgb(238, 238, 238); stroke-opacity: 1; stroke-width: 1px;"/><path class="xgrid crisp" d="M0,60v330" transform="translate(524.9300000000001,0)" style="stroke: rgb(238, 238, 238); stroke-opacity: 1; stroke-width: 1px;"/></g><g class="y"><path class="ygrid crisp" d="M60,0h580" transform="translate(0,375.82)" style="stroke: rgb(238, 238, 238); stroke-opacity: 1; stroke-width: 1px;"/><path class="ygrid crisp" d="M60,0h580" transform="translate(0,304.7)" style="stroke: rgb(238, 238, 238); stroke-opacity: 1; stroke-width: 1px;"/><path class="ygrid crisp" d="M60,0h580" transform="translate(0,233.59)" style="stroke: rgb(238, 238, 238); stroke-opacity: 1; stroke-width: 1px;"/><path class="ygrid crisp" d="M60,0h580" transform="translate(0,162.47)" style="stroke: rgb(238, 238, 238); stroke-opacity: 1; stroke-width: 1px;"/><path class="ygrid crisp" d="M60,0h580" transform="translate(0,91.35)" style="stroke: rgb(238, 238, 238); stroke-opacity: 1; stroke-width: 1px;"/></g></g><g class="zerolinelayer"><path class="xzl zl crisp" d="M0,60v330" transform="translate(60,0)" style="stroke: rgb(68, 68, 68); stroke-opacity: 1; stroke-width: 1px;"/></g><path class="xlines-below"/><path class="ylines-below"/><g class="overlines-below"/><g class="xaxislayer-below"/><g class="yaxislayer-below"/><g class="overaxes-below"/><g class="plot" transform="translate(60, 60)" clip-path="url(#clipacfaefxyplot)"><g class="imagelayer"/><g class="maplayer"/><g class="barlayer"/><g class="carpetlayer"/><g class="violinlayer"/><g class="boxlayer"/><g class="scatterlayer"><g class="trace scatter trace3c6f62" style="stroke-miterlimit: 2; opacity: 1;"><path class="js-line" d="M0,16.5L1.16,158.68L2.32,201.41L4.65,233.88L5.81,246.62L8.14,260.82L9.3,263.18L11.62,271.85L12.79,274.28L16.27,282.98L17.43,282.68L19.76,286.54L20.92,287.55L22.08,287.89L23.25,289.45L25.57,291.86L26.73,292.19L27.9,294.34L29.06,294.89L30.22,295.9L31.38,295.78L37.19,299.7L38.36,299.59L40.68,299.4L41.84,300.94L43.01,300.27L44.17,300.87L47.66,301.71L48.82,301.37L49.98,300.68L51.14,301.4L55.79,303.22L56.95,302.53L60.44,303.68L61.6,302.81L63.93,304.15L65.09,304.13L67.41,304.39L68.58,304.99L69.74,303.66L70.9,305L75.55,305.26L76.71,304.48L82.53,306.12L83.69,304.87L87.17,306.53L88.34,306.15L90.66,306.73L91.82,306.15L95.31,306.96L96.47,307.28L97.64,306.39L98.8,307.34L99.96,306.86L101.12,307.33L102.28,306.77L103.45,307.21L105.77,307.71L106.93,307.16L110.42,307.89L111.58,307.68L115.07,307.97L116.23,307.98L120.88,307.92L122.04,307.95L131.34,308.46L132.51,308.07L134.83,308.7L135.99,308.55L138.32,308.55L139.48,308.87L141.8,308.83L142.97,309L145.29,308.75L146.45,309.02L151.1,308.54L152.26,309.2L161.56,309.4L162.73,309.39L170.86,309.36L172.02,309.28L174.35,309.67L175.51,309.67L182.48,310.08L183.65,309.82L187.13,310.16L188.3,309.77L190.62,310.46L191.78,309.96L196.43,310.39L197.6,310.05L201.08,310.06L202.24,310.12L205.73,310.53L206.89,310.1L209.22,310.56L210.38,310.64L223.17,310.58L224.33,310.58L226.65,310.59L227.82,310.86L234.79,310.79L235.95,310.62L245.25,311.08L246.41,310.75L248.74,311.15L249.9,311.1L252.22,311.18L253.39,311.06L258.04,311.32L259.2,311.1L276.63,311.34L277.8,311.25L280.12,311.62L281.28,311.13L284.77,311.8L285.93,311.58L288.26,311.55L289.42,311.78L298.72,311.55L299.88,311.63L304.53,311.85L305.69,311.53L318.48,311.71L319.64,311.94L321.96,311.9L323.13,311.89L325.45,312.21L326.61,311.89L328.94,311.42L330.1,311.98L346.37,312.05L347.54,311.72L353.35,312.34L354.51,312.07L358,312.37L359.16,312.33L371.94,312.3L373.11,312.45L380.08,312.42L381.24,312.56L385.89,312.24L387.05,312.45L389.38,312.45L390.54,312.77L392.87,312.63L394.03,312.52L396.35,312.24L397.52,312.55L399.84,312.43L401,312.23L405.65,312.6L406.81,312.44L411.46,312.45L412.63,312.07L414.95,312.57L416.11,312.72L430.06,312.35L431.22,312.56L442.85,312.83L444.01,312.64L449.82,312.88L450.98,312.24L453.31,312.53L454.47,312.96L460.28,312.73L461.44,312.82L477.72,313.02L478.88,312.77L484.69,312.99L485.85,312.9L489.34,313.01L490.5,313.02L502.12,312.98L503.29,312.71L507.94,313.06L509.1,312.49L512.59,313L513.75,313.14L521.88,312.65L523.05,313.19L532.34,313.2L533.51,313.48L536.99,313.07L538.16,312.75L542.81,313.25L543.97,312.79L546.29,313.29L547.45,313.17L553.27,312.55L554.43,313.21L560.24,313.34L561.4,312.96L567.21,313.29L568.38,313.25L580,313.5" style="vector-effect: non-scaling-stroke; fill: none; stroke: rgb(31, 119, 180); stroke-opacity: 1; stroke-width: 2px; opacity: 1;"/><g class="points"/></g></g></g><g class="overplot"/><path class="xlines-above crisp" d="M0,0" style="fill: none;"/><path class="ylines-above crisp" d="M0,0" style="fill: none;"/><g class="overlines-above"/><g class="xaxislayer-above"><g class="xtick"><text text-anchor="middle" x="0" y="403" transform="translate(60,0)" style="font-family: 'Open Sans', verdana, arial, sans-serif; font-size: 12px; fill: rgb(68, 68, 68); fill-opacity: 1; white-space: pre;">0</text></g><g class="xtick"><text text-anchor="middle" x="0" y="403" transform="translate(176.23000000000002,0)" style="font-family: 'Open Sans', verdana, arial, sans-serif; font-size: 12px; fill: rgb(68, 68, 68); fill-opacity: 1; white-space: pre;">100</text></g><g class="xtick"><text text-anchor="middle" x="0" y="403" transform="translate(292.46000000000004,0)" style="font-family: 'Open Sans', verdana, arial, sans-serif; font-size: 12px; fill: rgb(68, 68, 68); fill-opacity: 1; white-space: pre;">200</text></g><g class="xtick"><text text-anchor="middle" x="0" y="403" transform="translate(408.7,0)" style="font-family: 'Open Sans', verdana, arial, sans-serif; font-size: 12px; fill: rgb(68, 68, 68); fill-opacity: 1; white-space: pre;">300</text></g><g class="xtick"><text text-anchor="middle" x="0" y="403" transform="translate(524.9300000000001,0)" style="font-family: 'Open Sans', verdana, arial, sans-serif; font-size: 12px; fill: rgb(68, 68, 68); fill-opacity: 1; white-space: pre;">400</text></g></g><g class="yaxislayer-above"><g class="ytick"><text text-anchor="end" x="59" y="4.199999999999999" transform="translate(0,375.82)" style="font-family: 'Open Sans', verdana, arial, sans-serif; font-size: 12px; fill: rgb(68, 68, 68); fill-opacity: 1; white-space: pre;">0.2</text></g><g class="ytick"><text text-anchor="end" x="59" y="4.199999999999999" transform="translate(0,304.7)" style="font-family: 'Open Sans', verdana, arial, sans-serif; font-size: 12px; fill: rgb(68, 68, 68); fill-opacity: 1; white-space: pre;">0.3</text></g><g class="ytick"><text text-anchor="end" x="59" y="4.199999999999999" transform="translate(0,233.59)" style="font-family: 'Open Sans', verdana, arial, sans-serif; font-size: 12px; fill: rgb(68, 68, 68); fill-opacity: 1; white-space: pre;">0.4</text></g><g class="ytick"><text text-anchor="end" x="59" y="4.199999999999999" transform="translate(0,162.47)" style="font-family: 'Open Sans', verdana, arial, sans-serif; font-size: 12px; fill: rgb(68, 68, 68); fill-opacity: 1; white-space: pre;">0.5</text></g><g class="ytick"><text text-anchor="end" x="59" y="4.199999999999999" transform="translate(0,91.35)" style="font-family: 'Open Sans', verdana, arial, sans-serif; font-size: 12px; fill: rgb(68, 68, 68); fill-opacity: 1; white-space: pre;">0.6</text></g></g><g class="overaxes-above"/></g></g><g class="polarlayer"/><g class="ternarylayer"/><g class="geolayer"/><g class="pielayer"/><g class="glimages"/><defs id="topdefs-acfaef"><g class="clips"/></defs><g class="layer-above"><g class="imagelayer"/><g class="shapelayer"/></g><g class="infolayer"><g class="g-gtitle"><text class="gtitle" x="350" y="30" text-anchor="middle" style="font-family: 'Open Sans', verdana, arial, sans-serif; font-size: 17px; fill: rgb(68, 68, 68); opacity: 1; font-weight: normal; white-space: pre;">Generator Loss</text></g><g class="g-xtitle"><text class="xtitle" x="350" y="442" text-anchor="middle" style="font-family: 'Open Sans', verdana, arial, sans-serif; font-size: 14px; fill: rgb(68, 68, 68); opacity: 1; font-weight: normal; white-space: pre;">epochs</text></g><g class="g-ytitle"><text class="ytitle" transform="rotate(-90,22,225)" x="22" y="225" text-anchor="middle" style="font-family: 'Open Sans', verdana, arial, sans-serif; font-size: 14px; fill: rgb(68, 68, 68); opacity: 1; font-weight: normal; white-space: pre;">Loss</text></g></g></svg>